<svg width="362" height="81" viewBox="0 0 362 81" fill="none" xmlns="http://www.w3.org/2000/svg">
<g filter="url(#filter0_d_1164_13049)">
<path d="M339.254 3.81055H21.8447C11.7551 3.81055 3.57581 11.9898 3.57581 22.0794V54.8833C3.57581 64.9729 11.7551 73.1522 21.8447 73.1522H339.254C349.344 73.1522 357.523 64.9729 357.523 54.8833V22.0794C357.523 11.9898 349.344 3.81055 339.254 3.81055Z" fill="#9286DB"/>
<path d="M339.254 3.81055H21.8447C11.7551 3.81055 3.57581 11.9898 3.57581 22.0794V54.8833C3.57581 64.9729 11.7551 73.1522 21.8447 73.1522H339.254C349.344 73.1522 357.523 64.9729 357.523 54.8833V22.0794C357.523 11.9898 349.344 3.81055 339.254 3.81055Z" stroke="white" stroke-width="5.71497" stroke-miterlimit="10"/>
</g>
<defs>
<filter id="filter0_d_1164_13049" x="0.718262" y="0.953125" width="360.424" height="79.2476" filterUnits="userSpaceOnUse" color-interpolation-filters="sRGB">
<feFlood flood-opacity="0" result="BackgroundImageFix"/>
<feColorMatrix in="SourceAlpha" type="matrix" values="0 0 0 0 0 0 0 0 0 0 0 0 0 0 0 0 0 0 127 0" result="hardAlpha"/>
<feOffset dx="0.761996" dy="4.19098"/>
<feColorMatrix type="matrix" values="0 0 0 0 0 0 0 0 0 0 0 0 0 0 0 0 0 0 0.75 0"/>
<feBlend mode="normal" in2="BackgroundImageFix" result="effect1_dropShadow_1164_13049"/>
<feBlend mode="normal" in="SourceGraphic" in2="effect1_dropShadow_1164_13049" result="shape"/>
</filter>
</defs>
</svg>
