<svg width="398" height="102" viewBox="0 0 398 102" fill="none" xmlns="http://www.w3.org/2000/svg">
<g filter="url(#filter0_d_1164_13047)">
<path d="M375.254 14.8105H57.8447C47.7551 14.8105 39.5758 22.9898 39.5758 33.0794V65.8833C39.5758 75.9729 47.7551 84.1522 57.8447 84.1522H375.254C385.344 84.1522 393.523 75.9729 393.523 65.8833V33.0794C393.523 22.9898 385.344 14.8105 375.254 14.8105Z" fill="#9286DB"/>
<path d="M375.254 14.8105H57.8447C47.7551 14.8105 39.5758 22.9898 39.5758 33.0794V65.8833C39.5758 75.9729 47.7551 84.1522 57.8447 84.1522H375.254C385.344 84.1522 393.523 75.9729 393.523 65.8833V33.0794C393.523 22.9898 385.344 14.8105 375.254 14.8105Z" stroke="white" stroke-width="5.71497" stroke-miterlimit="10"/>
</g>
<g filter="url(#filter1_d_1164_13047)">
<path d="M49.6723 96.3445C75.4486 96.3445 96.3445 75.4486 96.3445 49.6723C96.3445 23.8959 75.4486 3 49.6723 3C23.8959 3 3 23.8959 3 49.6723C3 75.4486 23.8959 96.3445 49.6723 96.3445Z" fill="#9286DB"/>
<path d="M49.6723 96.3445C75.4486 96.3445 96.3445 75.4486 96.3445 49.6723C96.3445 23.8959 75.4486 3 49.6723 3C23.8959 3 3 23.8959 3 49.6723C3 75.4486 23.8959 96.3445 49.6723 96.3445Z" stroke="white" stroke-width="5.71497" stroke-miterlimit="10"/>
</g>
<defs>
<filter id="filter0_d_1164_13047" x="36.7183" y="11.9531" width="360.424" height="79.2476" filterUnits="userSpaceOnUse" color-interpolation-filters="sRGB">
<feFlood flood-opacity="0" result="BackgroundImageFix"/>
<feColorMatrix in="SourceAlpha" type="matrix" values="0 0 0 0 0 0 0 0 0 0 0 0 0 0 0 0 0 0 127 0" result="hardAlpha"/>
<feOffset dx="0.761996" dy="4.19098"/>
<feColorMatrix type="matrix" values="0 0 0 0 0 0 0 0 0 0 0 0 0 0 0 0 0 0 0.75 0"/>
<feBlend mode="normal" in2="BackgroundImageFix" result="effect1_dropShadow_1164_13047"/>
<feBlend mode="normal" in="SourceGraphic" in2="effect1_dropShadow_1164_13047" result="shape"/>
</filter>
<filter id="filter1_d_1164_13047" x="0.142456" y="0.142578" width="101.727" height="101.727" filterUnits="userSpaceOnUse" color-interpolation-filters="sRGB">
<feFlood flood-opacity="0" result="BackgroundImageFix"/>
<feColorMatrix in="SourceAlpha" type="matrix" values="0 0 0 0 0 0 0 0 0 0 0 0 0 0 0 0 0 0 127 0" result="hardAlpha"/>
<feOffset dx="2.66699" dy="2.66699"/>
<feColorMatrix type="matrix" values="0 0 0 0 0 0 0 0 0 0 0 0 0 0 0 0 0 0 0.75 0"/>
<feBlend mode="normal" in2="BackgroundImageFix" result="effect1_dropShadow_1164_13047"/>
<feBlend mode="normal" in="SourceGraphic" in2="effect1_dropShadow_1164_13047" result="shape"/>
</filter>
</defs>
</svg>
